<svg width="196" height="65" viewBox="0 0 196 65" fill="none" xmlns="http://www.w3.org/2000/svg">
<path d="M1.89631 32V10.1818H10.6321C12.2372 10.1818 13.576 10.4197 14.6484 10.8956C15.7209 11.3714 16.527 12.032 17.0668 12.8771C17.6065 13.7152 17.8764 14.6811 17.8764 15.7749C17.8764 16.6271 17.706 17.3764 17.3651 18.0227C17.0241 18.6619 16.5554 19.1875 15.9588 19.5994C15.3693 20.0043 14.6946 20.2919 13.9347 20.4624V20.6754C14.7656 20.7109 15.5433 20.9453 16.2678 21.3786C16.9993 21.8118 17.5923 22.419 18.0469 23.2003C18.5014 23.9744 18.7287 24.8977 18.7287 25.9702C18.7287 27.1278 18.4411 28.1612 17.8658 29.0703C17.2976 29.9723 16.456 30.6861 15.3409 31.2116C14.2259 31.7372 12.8516 32 11.218 32H1.89631ZM6.50923 28.2287H10.2699C11.5554 28.2287 12.4929 27.9837 13.0824 27.4936C13.6719 26.9964 13.9666 26.3359 13.9666 25.5121C13.9666 24.9084 13.821 24.3757 13.5298 23.9141C13.2386 23.4524 12.8232 23.0902 12.2834 22.8274C11.7507 22.5646 11.1151 22.4332 10.3764 22.4332H6.50923V28.2287ZM6.50923 19.3118H9.92898C10.5611 19.3118 11.1222 19.2017 11.6122 18.9815C12.1094 18.7543 12.5 18.4347 12.7841 18.0227C13.0753 17.6108 13.2209 17.1172 13.2209 16.5419C13.2209 15.7536 12.9403 15.1179 12.3793 14.6349C11.8253 14.152 11.0369 13.9105 10.0142 13.9105H6.50923V19.3118ZM21.0451 32V15.6364H25.4449V18.4915H25.6154C25.9137 17.4759 26.4144 16.7088 27.1175 16.1903C27.8206 15.6648 28.6303 15.402 29.5465 15.402C29.7738 15.402 30.0188 15.4162 30.2816 15.4446C30.5444 15.473 30.7752 15.5121 30.974 15.5618V19.5888C30.761 19.5249 30.4662 19.468 30.0898 19.4183C29.7134 19.3686 29.3689 19.3438 29.0564 19.3438C28.3888 19.3438 27.7922 19.4893 27.2667 19.7805C26.7482 20.0646 26.3363 20.4624 26.0309 20.9737C25.7326 21.4851 25.5834 22.0746 25.5834 22.7422V32H21.0451ZM36.9179 32.3089C35.8739 32.3089 34.9435 32.1278 34.1267 31.7656C33.3099 31.3963 32.6636 30.853 32.1878 30.1357C31.719 29.4112 31.4847 28.5092 31.4847 27.4297C31.4847 26.5206 31.6516 25.7571 31.9854 25.1392C32.3192 24.5213 32.7737 24.0241 33.349 23.6477C33.9243 23.2713 34.5777 22.9872 35.3092 22.7955C36.0479 22.6037 36.822 22.4688 37.6317 22.3906C38.5834 22.2912 39.3504 22.1989 39.9328 22.1136C40.5152 22.0213 40.9378 21.8864 41.2006 21.7088C41.4634 21.5312 41.5947 21.2685 41.5947 20.9205V20.8565C41.5947 20.1818 41.3817 19.6598 40.9555 19.2905C40.5365 18.9212 39.9399 18.7365 39.1658 18.7365C38.349 18.7365 37.6991 18.9176 37.2162 19.2798C36.7332 19.6349 36.4136 20.0824 36.2574 20.6222L32.0599 20.2812C32.273 19.2869 32.692 18.4276 33.317 17.7031C33.942 16.9716 34.7482 16.4105 35.7354 16.0199C36.7297 15.6222 37.8803 15.4233 39.1871 15.4233C40.0962 15.4233 40.9662 15.5298 41.7972 15.7429C42.6352 15.956 43.3774 16.2862 44.0237 16.7337C44.6771 17.1811 45.192 17.7564 45.5685 18.4595C45.9449 19.1555 46.1331 19.9901 46.1331 20.9631V32H41.8291V29.7308H41.7013C41.4385 30.2422 41.0869 30.6932 40.6466 31.0838C40.2062 31.4673 39.6771 31.7692 39.0592 31.9893C38.4413 32.2024 37.7276 32.3089 36.9179 32.3089ZM38.2176 29.1768C38.8852 29.1768 39.4747 29.0455 39.9861 28.7827C40.4974 28.5128 40.8987 28.1506 41.1899 27.696C41.4811 27.2415 41.6267 26.7266 41.6267 26.1513V24.4148C41.4847 24.5071 41.2893 24.5923 41.0408 24.6705C40.7993 24.7415 40.5259 24.8089 40.2205 24.8729C39.9151 24.9297 39.6097 24.983 39.3043 25.0327C38.9989 25.0753 38.7219 25.1143 38.4733 25.1499C37.9406 25.228 37.4754 25.3523 37.0777 25.5227C36.68 25.6932 36.371 25.924 36.1509 26.2152C35.9307 26.4993 35.8206 26.8544 35.8206 27.2805C35.8206 27.8984 36.0443 28.3707 36.4918 28.6974C36.9463 29.017 37.5216 29.1768 38.2176 29.1768ZM62.6691 20.3026L58.5143 20.5582C58.4433 20.2031 58.2906 19.8835 58.0562 19.5994C57.8218 19.3082 57.5129 19.0774 57.1293 18.907C56.7529 18.7294 56.3019 18.6406 55.7764 18.6406C55.0732 18.6406 54.4802 18.7898 53.9972 19.0881C53.5143 19.3793 53.2728 19.7699 53.2728 20.2599C53.2728 20.6506 53.429 20.9808 53.7415 21.2507C54.054 21.5206 54.5903 21.7372 55.3502 21.9006L58.3119 22.4972C59.9028 22.8239 61.0889 23.3494 61.8701 24.0739C62.6514 24.7983 63.042 25.75 63.042 26.929C63.042 28.0014 62.7259 28.9425 62.0938 29.7521C61.4688 30.5618 60.6094 31.1939 59.5157 31.6484C58.429 32.0959 57.1755 32.3196 55.755 32.3196C53.5889 32.3196 51.863 31.8686 50.5775 30.9666C49.2991 30.0575 48.5498 28.8217 48.3296 27.2592L52.7934 27.0249C52.9283 27.6854 53.255 28.1896 53.7735 28.5376C54.292 28.8786 54.956 29.049 55.7657 29.049C56.5612 29.049 57.2004 28.8963 57.6833 28.5909C58.1734 28.2784 58.4219 27.8771 58.429 27.3871C58.4219 26.9751 58.2479 26.6378 57.907 26.375C57.5661 26.1051 57.0406 25.8991 56.3303 25.7571L53.4965 25.1925C51.8985 24.8729 50.7089 24.3189 49.9276 23.5305C49.1535 22.7422 48.7664 21.7372 48.7664 20.5156C48.7664 19.4645 49.0505 18.5589 49.6187 17.799C50.194 17.0391 51.0001 16.4531 52.037 16.0412C53.081 15.6293 54.3026 15.4233 55.7018 15.4233C57.7685 15.4233 59.395 15.8601 60.581 16.7337C61.7742 17.6072 62.4702 18.7969 62.6691 20.3026ZM78.9148 20.3026L74.76 20.5582C74.689 20.2031 74.5363 19.8835 74.3019 19.5994C74.0675 19.3082 73.7586 19.0774 73.375 18.907C72.9986 18.7294 72.5476 18.6406 72.0221 18.6406C71.3189 18.6406 70.7259 18.7898 70.2429 19.0881C69.76 19.3793 69.5185 19.7699 69.5185 20.2599C69.5185 20.6506 69.6748 20.9808 69.9873 21.2507C70.2998 21.5206 70.836 21.7372 71.5959 21.9006L74.5576 22.4972C76.1485 22.8239 77.3346 23.3494 78.1158 24.0739C78.8971 24.7983 79.2877 25.75 79.2877 26.929C79.2877 28.0014 78.9716 28.9425 78.3395 29.7521C77.7145 30.5618 76.8551 31.1939 75.7614 31.6484C74.6748 32.0959 73.4212 32.3196 72.0007 32.3196C69.8346 32.3196 68.1087 31.8686 66.8232 30.9666C65.5448 30.0575 64.7955 28.8217 64.5753 27.2592L69.0391 27.0249C69.174 27.6854 69.5007 28.1896 70.0192 28.5376C70.5377 28.8786 71.2017 29.049 72.0114 29.049C72.8069 29.049 73.4461 28.8963 73.929 28.5909C74.4191 28.2784 74.6676 27.8771 74.6748 27.3871C74.6676 26.9751 74.4936 26.6378 74.1527 26.375C73.8118 26.1051 73.2863 25.8991 72.576 25.7571L69.7422 25.1925C68.1442 24.8729 66.9546 24.3189 66.1733 23.5305C65.3992 22.7422 65.0121 21.7372 65.0121 20.5156C65.0121 19.4645 65.2962 18.5589 65.8644 17.799C66.4397 17.0391 67.2458 16.4531 68.2827 16.0412C69.3267 15.6293 70.5483 15.4233 71.9475 15.4233C74.0142 15.4233 75.6407 15.8601 76.8267 16.7337C78.0199 17.6072 78.7159 18.7969 78.9148 20.3026ZM81.6307 32V10.1818H90.3665C91.9716 10.1818 93.3104 10.4197 94.3828 10.8956C95.4553 11.3714 96.2614 12.032 96.8011 12.8771C97.3409 13.7152 97.6108 14.6811 97.6108 15.7749C97.6108 16.6271 97.4403 17.3764 97.0994 18.0227C96.7585 18.6619 96.2898 19.1875 95.6932 19.5994C95.1037 20.0043 94.429 20.2919 93.669 20.4624V20.6754C94.5 20.7109 95.2777 20.9453 96.0021 21.3786C96.7337 21.8118 97.3267 22.419 97.7812 23.2003C98.2358 23.9744 98.4631 24.8977 98.4631 25.9702C98.4631 27.1278 98.1754 28.1612 97.6001 29.0703C97.032 29.9723 96.1903 30.6861 95.0753 31.2116C93.9602 31.7372 92.5859 32 90.9524 32H81.6307ZM86.2436 28.2287H90.0043C91.2898 28.2287 92.2273 27.9837 92.8168 27.4936C93.4063 26.9964 93.701 26.3359 93.701 25.5121C93.701 24.9084 93.5554 24.3757 93.2642 23.9141C92.973 23.4524 92.5575 23.0902 92.0178 22.8274C91.4851 22.5646 90.8494 22.4332 90.1108 22.4332H86.2436V28.2287ZM86.2436 19.3118H89.6634C90.2955 19.3118 90.8565 19.2017 91.3466 18.9815C91.8438 18.7543 92.2344 18.4347 92.5185 18.0227C92.8097 17.6108 92.9553 17.1172 92.9553 16.5419C92.9553 15.7536 92.6747 15.1179 92.1136 14.6349C91.5597 14.152 90.7713 13.9105 89.7486 13.9105H86.2436V19.3118ZM108.173 32.3196C106.518 32.3196 105.087 31.968 103.88 31.2649C102.679 30.5547 101.752 29.5675 101.099 28.3033C100.446 27.032 100.119 25.5582 100.119 23.8821C100.119 22.1918 100.446 20.7145 101.099 19.4503C101.752 18.179 102.679 17.1918 103.88 16.4886C105.087 15.7784 106.518 15.4233 108.173 15.4233C109.828 15.4233 111.255 15.7784 112.456 16.4886C113.663 17.1918 114.593 18.179 115.247 19.4503C115.9 20.7145 116.227 22.1918 116.227 23.8821C116.227 25.5582 115.9 27.032 115.247 28.3033C114.593 29.5675 113.663 30.5547 112.456 31.2649C111.255 31.968 109.828 32.3196 108.173 32.3196ZM108.194 28.804C108.947 28.804 109.576 28.5909 110.08 28.1648C110.584 27.7315 110.964 27.142 111.22 26.3963C111.483 25.6506 111.614 24.8018 111.614 23.8501C111.614 22.8984 111.483 22.0497 111.22 21.304C110.964 20.5582 110.584 19.9687 110.08 19.5355C109.576 19.1023 108.947 18.8857 108.194 18.8857C107.434 18.8857 106.795 19.1023 106.277 19.5355C105.765 19.9687 105.378 20.5582 105.115 21.304C104.86 22.0497 104.732 22.8984 104.732 23.8501C104.732 24.8018 104.86 25.6506 105.115 26.3963C105.378 27.142 105.765 27.7315 106.277 28.1648C106.795 28.5909 107.434 28.804 108.194 28.804ZM125.971 32.3196C124.317 32.3196 122.885 31.968 121.678 31.2649C120.478 30.5547 119.551 29.5675 118.897 28.3033C118.244 27.032 117.917 25.5582 117.917 23.8821C117.917 22.1918 118.244 20.7145 118.897 19.4503C119.551 18.179 120.478 17.1918 121.678 16.4886C122.885 15.7784 124.317 15.4233 125.971 15.4233C127.626 15.4233 129.054 15.7784 130.254 16.4886C131.461 17.1918 132.392 18.179 133.045 19.4503C133.699 20.7145 134.025 22.1918 134.025 23.8821C134.025 25.5582 133.699 27.032 133.045 28.3033C132.392 29.5675 131.461 30.5547 130.254 31.2649C129.054 31.968 127.626 32.3196 125.971 32.3196ZM125.993 28.804C126.745 28.804 127.374 28.5909 127.878 28.1648C128.383 27.7315 128.763 27.142 129.018 26.3963C129.281 25.6506 129.412 24.8018 129.412 23.8501C129.412 22.8984 129.281 22.0497 129.018 21.304C128.763 20.5582 128.383 19.9687 127.878 19.5355C127.374 19.1023 126.745 18.8857 125.993 18.8857C125.233 18.8857 124.594 19.1023 124.075 19.5355C123.564 19.9687 123.177 20.5582 122.914 21.304C122.658 22.0497 122.53 22.8984 122.53 23.8501C122.53 24.8018 122.658 25.6506 122.914 26.3963C123.177 27.142 123.564 27.7315 124.075 28.1648C124.594 28.5909 125.233 28.804 125.993 28.804ZM140.489 27.2912L140.499 21.8473H141.16L146.401 15.6364H151.611L144.569 23.8608H143.493L140.489 27.2912ZM136.376 32V10.1818H140.915V32H136.376ZM146.604 32L141.788 24.8729L144.814 21.6662L151.92 32H146.604Z" fill="white"/>
<path d="M10.9034 47.3636V59H8.47159V49.3636H3.76705V59H1.33523V47.3636H10.9034ZM13.2457 59V47.3636H17.8366C18.7192 47.3636 19.4711 47.5322 20.0923 47.8693C20.7135 48.2027 21.187 48.6667 21.5128 49.2614C21.8423 49.8523 22.0071 50.5341 22.0071 51.3068C22.0071 52.0795 21.8404 52.7614 21.5071 53.3523C21.1738 53.9432 20.6908 54.4034 20.0582 54.733C19.4295 55.0625 18.6681 55.2273 17.7741 55.2273H14.848V53.2557H17.3764C17.8499 53.2557 18.2401 53.1742 18.5469 53.0114C18.8575 52.8447 19.0885 52.6155 19.2401 52.3239C19.3954 52.0284 19.473 51.6894 19.473 51.3068C19.473 50.9205 19.3954 50.5833 19.2401 50.2955C19.0885 50.0038 18.8575 49.7784 18.5469 49.6193C18.2363 49.4564 17.8423 49.375 17.3651 49.375H15.706V59H13.2457ZM34.2983 53.1818C34.2983 54.4508 34.0578 55.5303 33.5767 56.4205C33.0994 57.3106 32.4479 57.9905 31.6222 58.4602C30.8002 58.9261 29.8759 59.1591 28.8494 59.1591C27.8153 59.1591 26.8873 58.9242 26.0653 58.4545C25.2434 57.9848 24.5938 57.3049 24.1165 56.4148C23.6392 55.5246 23.4006 54.447 23.4006 53.1818C23.4006 51.9129 23.6392 50.8333 24.1165 49.9432C24.5938 49.053 25.2434 48.375 26.0653 47.9091C26.8873 47.4394 27.8153 47.2045 28.8494 47.2045C29.8759 47.2045 30.8002 47.4394 31.6222 47.9091C32.4479 48.375 33.0994 49.053 33.5767 49.9432C34.0578 50.8333 34.2983 51.9129 34.2983 53.1818ZM31.804 53.1818C31.804 52.3598 31.6809 51.6667 31.4347 51.1023C31.1922 50.5379 30.8494 50.1098 30.4062 49.8182C29.9631 49.5265 29.4441 49.3807 28.8494 49.3807C28.2547 49.3807 27.7358 49.5265 27.2926 49.8182C26.8494 50.1098 26.5047 50.5379 26.2585 51.1023C26.0161 51.6667 25.8949 52.3598 25.8949 53.1818C25.8949 54.0038 26.0161 54.697 26.2585 55.2614C26.5047 55.8258 26.8494 56.2538 27.2926 56.5455C27.7358 56.8371 28.2547 56.983 28.8494 56.983C29.4441 56.983 29.9631 56.8371 30.4062 56.5455C30.8494 56.2538 31.1922 55.8258 31.4347 55.2614C31.6809 54.697 31.804 54.0038 31.804 53.1818ZM36.1207 59V47.3636H43.9616V49.392H38.581V52.1648H43.5582V54.1932H38.581V56.9716H43.9844V59H36.1207ZM52.9574 59L49.2188 54.0398H48.3778V59H45.9176V47.3636H48.3778V52.0114H48.8722L52.7358 47.3636H55.7983L51.2585 52.7614L56.0085 59H52.9574ZM56.8026 49.392V47.3636H66.3594V49.392H62.7969V59H60.3651V49.392H56.8026ZM67.9332 59V47.3636H70.3935V52.1648H75.3878V47.3636H77.8423V59H75.3878V54.1932H70.3935V59H67.9332ZM81.8764 59H79.2401L83.2571 47.3636H86.4276L90.4389 59H87.8026L84.8878 50.0227H84.7969L81.8764 59ZM81.7116 54.4261H87.9389V56.3466H81.7116V54.4261ZM100.771 59H98.3168V49.375H96.6577C96.1842 49.375 95.7902 49.4451 95.4759 49.5852C95.1652 49.7216 94.9323 49.9223 94.777 50.1875C94.6217 50.4527 94.544 50.7784 94.544 51.1648C94.544 51.5473 94.6217 51.8674 94.777 52.125C94.9323 52.3826 95.1652 52.5758 95.4759 52.7045C95.7865 52.8333 96.1766 52.8977 96.6463 52.8977H99.3168V54.875H96.2486C95.3584 54.875 94.5971 54.7273 93.9645 54.4318C93.3319 54.1364 92.849 53.7121 92.5156 53.1591C92.1823 52.6023 92.0156 51.9375 92.0156 51.1648C92.0156 50.3958 92.1785 49.7273 92.5043 49.1591C92.8338 48.5871 93.3092 48.1458 93.9304 47.8352C94.5554 47.5208 95.3073 47.3636 96.1861 47.3636H100.771V59ZM94.4929 53.7045H97.1463L94.3168 59H91.6009L94.4929 53.7045ZM116.388 47.3636V59H113.956V49.3636H109.251V59H106.82V47.3636H116.388ZM118.73 59V47.3636H123.321C124.204 47.3636 124.955 47.5322 125.577 47.8693C126.198 48.2027 126.671 48.6667 126.997 49.2614C127.327 49.8523 127.491 50.5341 127.491 51.3068C127.491 52.0795 127.325 52.7614 126.991 53.3523C126.658 53.9432 126.175 54.4034 125.543 54.733C124.914 55.0625 124.152 55.2273 123.259 55.2273H120.332V53.2557H122.861C123.334 53.2557 123.724 53.1742 124.031 53.0114C124.342 52.8447 124.573 52.6155 124.724 52.3239C124.88 52.0284 124.957 51.6894 124.957 51.3068C124.957 50.9205 124.88 50.5833 124.724 50.2955C124.573 50.0038 124.342 49.7784 124.031 49.6193C123.721 49.4564 123.327 49.375 122.849 49.375H121.19V59H118.73ZM129.751 59H127.115L131.132 47.3636H134.303L138.314 59H135.678L132.763 50.0227H132.672L129.751 59ZM129.587 54.4261H135.814V56.3466H129.587V54.4261ZM146.754 59L143.016 54.0398H142.175V59H139.714V47.3636H142.175V52.0114H142.669L146.533 47.3636H149.595L145.055 52.7614L149.805 59H146.754ZM150.599 49.392V47.3636H160.156V49.392H156.594V59H154.162V49.392H150.599ZM161.73 47.3636H164.185V54.6818H164.281L169.31 47.3636H171.463V59H169.003V51.6761H168.918L163.861 59H161.73V47.3636ZM180.536 59L176.797 54.0398H175.956V59H173.496V47.3636H175.956V52.0114H176.45L180.314 47.3636H183.376L178.837 52.7614L183.587 59H180.536ZM186.83 59H184.193L188.21 47.3636H191.381L195.392 59H192.756L189.841 50.0227H189.75L186.83 59ZM186.665 54.4261H192.892V56.3466H186.665V54.4261Z" fill="white"/>
</svg>
