<svg width="417" height="138" viewBox="0 0 417 138" fill="none" xmlns="http://www.w3.org/2000/svg">
<path d="M4.02601 68V21.6783H22.5728C25.9806 21.6783 28.8229 22.1835 31.0998 23.1937C33.3766 24.204 35.0881 25.6063 36.234 27.4007C37.38 29.18 37.953 31.2307 37.953 33.5528C37.953 35.3622 37.5911 36.953 36.8674 38.3252C36.1436 39.6823 35.1484 40.7981 33.8818 41.6726C32.6302 42.5321 31.1978 43.1428 29.5844 43.5047V43.9571C31.3486 44.0325 32.9997 44.53 34.5377 45.4498C36.0908 46.3696 37.3499 47.6589 38.3149 49.3175C39.2799 50.9611 39.7625 52.9213 39.7625 55.1982C39.7625 57.656 39.1518 59.85 37.9304 61.78C36.7241 63.695 34.9373 65.2104 32.5699 66.3263C30.2026 67.4421 27.2849 68 23.8168 68H4.02601ZM13.8196 59.9932H21.8038C24.533 59.9932 26.5234 59.473 27.7749 58.4326C29.0264 57.3771 29.6522 55.9748 29.6522 54.2256C29.6522 52.9439 29.3431 51.813 28.7249 50.8329C28.1066 49.8528 27.2245 49.0838 26.0786 48.5259C24.9477 47.968 23.5981 47.689 22.0299 47.689H13.8196V59.9932ZM13.8196 41.062H21.08C22.422 41.062 23.6132 40.8282 24.6536 40.3608C25.7091 39.8783 26.5385 39.1997 27.1416 38.3252C27.7598 37.4506 28.0689 36.4026 28.0689 35.1813C28.0689 33.5075 27.4733 32.158 26.2821 31.1326C25.106 30.1073 23.4323 29.5946 21.2609 29.5946H13.8196V41.062ZM44.6803 68V33.2587H54.0215V39.3204H54.3834C55.0167 37.1641 56.0798 35.5356 57.5726 34.4349C59.0653 33.3191 60.7843 32.7611 62.7295 32.7611C63.212 32.7611 63.7322 32.7913 64.2901 32.8516C64.848 32.9119 65.3381 32.9949 65.7603 33.1004V41.65C65.3079 41.5143 64.6821 41.3937 63.883 41.2881C63.0838 41.1826 62.3525 41.1298 61.689 41.1298C60.2716 41.1298 59.005 41.4389 57.8892 42.0571C56.7885 42.6603 55.9139 43.5047 55.2655 44.5904C54.6322 45.676 54.3156 46.9276 54.3156 48.345V68H44.6803ZM78.3795 68.6559C76.163 68.6559 74.1877 68.2714 72.4536 67.5024C70.7196 66.7183 69.3474 65.5648 68.3371 64.0418C67.3419 62.5038 66.8443 60.5888 66.8443 58.2969C66.8443 56.3668 67.1987 54.7458 67.9074 53.434C68.6161 52.1222 69.5811 51.0667 70.8025 50.2675C72.0239 49.4683 73.4111 48.8652 74.9642 48.458C76.5324 48.0509 78.176 47.7644 79.8949 47.5986C81.9155 47.3875 83.544 47.1914 84.7804 47.0105C86.0169 46.8145 86.9141 46.528 87.472 46.151C88.0299 45.774 88.3088 45.2161 88.3088 44.4773V44.3416C88.3088 42.9091 87.8565 41.8008 86.9518 41.0167C86.0621 40.2326 84.7955 39.8406 83.1519 39.8406C81.4179 39.8406 80.0382 40.2251 79.0128 40.9941C77.9875 41.748 77.3089 42.698 76.9772 43.844L68.0657 43.1202C68.5181 41.0092 69.4077 39.1847 70.7346 37.6466C72.0616 36.0935 73.773 34.9023 75.8689 34.073C77.9799 33.2286 80.4227 32.8064 83.1972 32.8064C85.1272 32.8064 86.9744 33.0326 88.7386 33.4849C90.5179 33.9373 92.0936 34.6384 93.4657 35.5884C94.853 36.5384 95.9462 37.7597 96.7454 39.2525C97.5445 40.7302 97.9441 42.502 97.9441 44.5677V68H88.8064V63.1824H88.535C87.9771 64.268 87.2307 65.2255 86.2958 66.0549C85.361 66.8691 84.2376 67.5099 82.9258 67.9774C81.6139 68.4297 80.0985 68.6559 78.3795 68.6559ZM81.1389 62.0062C82.5563 62.0062 83.8079 61.7273 84.8935 61.1694C85.9792 60.5964 86.8311 59.8274 87.4494 58.8623C88.0676 57.8973 88.3767 56.8041 88.3767 55.5827V51.896C88.0751 52.092 87.6605 52.2729 87.1327 52.4388C86.62 52.5896 86.0395 52.7328 85.3911 52.8686C84.7427 52.9892 84.0943 53.1023 83.446 53.2078C82.7976 53.2983 82.2095 53.3812 81.6818 53.4566C80.5509 53.6225 79.5632 53.8864 78.7188 54.2483C77.8744 54.6101 77.2185 55.1002 76.751 55.7184C76.2836 56.3216 76.0499 57.0755 76.0499 57.9802C76.0499 59.2921 76.5249 60.2948 77.4748 60.9884C78.4398 61.667 79.6612 62.0062 81.1389 62.0062ZM133.051 43.1654L124.23 43.7083C124.08 42.9543 123.755 42.2758 123.258 41.6726C122.76 41.0544 122.104 40.5644 121.29 40.2025C120.491 39.8255 119.533 39.637 118.417 39.637C116.925 39.637 115.666 39.9537 114.64 40.587C113.615 41.2052 113.102 42.0345 113.102 43.075C113.102 43.9043 113.434 44.6054 114.097 45.1784C114.761 45.7514 115.899 46.2113 117.513 46.5581L123.801 47.8247C127.178 48.5184 129.696 49.6342 131.355 51.1722C133.014 52.7102 133.843 54.7308 133.843 57.2338C133.843 59.5107 133.172 61.5086 131.83 63.2276C130.503 64.9466 128.679 66.2886 126.356 67.2536C124.049 68.2036 121.388 68.6785 118.372 68.6785C113.773 68.6785 110.109 67.721 107.38 65.8061C104.666 63.876 103.075 61.2523 102.607 57.935L112.084 57.4374C112.371 58.8397 113.065 59.9103 114.165 60.6491C115.266 61.3729 116.676 61.7348 118.395 61.7348C120.084 61.7348 121.441 61.4106 122.466 60.7622C123.507 60.0988 124.034 59.2468 124.049 58.2064C124.034 57.3318 123.665 56.6156 122.941 56.0577C122.217 55.4847 121.101 55.0474 119.594 54.7458L113.577 53.5471C110.185 52.8686 107.659 51.6924 106 50.0187C104.357 48.345 103.535 46.2113 103.535 43.6178C103.535 41.3861 104.138 39.4636 105.344 37.8502C106.566 36.2368 108.277 34.9928 110.479 34.1182C112.695 33.2437 115.289 32.8064 118.259 32.8064C122.647 32.8064 126.1 33.7337 128.618 35.5884C131.151 37.4431 132.629 39.9687 133.051 43.1654ZM167.542 43.1654L158.721 43.7083C158.57 42.9543 158.246 42.2758 157.749 41.6726C157.251 41.0544 156.595 40.5644 155.781 40.2025C154.982 39.8255 154.024 39.637 152.908 39.637C151.416 39.637 150.157 39.9537 149.131 40.587C148.106 41.2052 147.593 42.0345 147.593 43.075C147.593 43.9043 147.925 44.6054 148.588 45.1784C149.252 45.7514 150.39 46.2113 152.004 46.5581L158.291 47.8247C161.669 48.5184 164.187 49.6342 165.846 51.1722C167.505 52.7102 168.334 54.7308 168.334 57.2338C168.334 59.5107 167.663 61.5086 166.321 63.2276C164.994 64.9466 163.169 66.2886 160.847 67.2536C158.54 68.2036 155.879 68.6785 152.863 68.6785C148.264 68.6785 144.6 67.721 141.871 65.8061C139.157 63.876 137.566 61.2523 137.098 57.935L146.575 57.4374C146.862 58.8397 147.555 59.9103 148.656 60.6491C149.757 61.3729 151.167 61.7348 152.886 61.7348C154.575 61.7348 155.932 61.4106 156.957 60.7622C157.997 60.0988 158.525 59.2468 158.54 58.2064C158.525 57.3318 158.156 56.6156 157.432 56.0577C156.708 55.4847 155.592 55.0474 154.084 54.7458L148.068 53.5471C144.675 52.8686 142.15 51.6924 140.491 50.0187C138.847 48.345 138.026 46.2113 138.026 43.6178C138.026 41.3861 138.629 39.4636 139.835 37.8502C141.057 36.2368 142.768 34.9928 144.969 34.1182C147.186 33.2437 149.78 32.8064 152.75 32.8064C157.138 32.8064 160.591 33.7337 163.109 35.5884C165.642 37.4431 167.12 39.9687 167.542 43.1654ZM173.308 68V21.6783H191.855C195.263 21.6783 198.105 22.1835 200.382 23.1937C202.659 24.204 204.37 25.6063 205.516 27.4007C206.662 29.18 207.235 31.2307 207.235 33.5528C207.235 35.3622 206.873 36.953 206.15 38.3252C205.426 39.6823 204.431 40.7981 203.164 41.6726C201.912 42.5321 200.48 43.1428 198.867 43.5047V43.9571C200.631 44.0325 202.282 44.53 203.82 45.4498C205.373 46.3696 206.632 47.6589 207.597 49.3175C208.562 50.9611 209.045 52.9213 209.045 55.1982C209.045 57.656 208.434 59.85 207.213 61.78C206.006 63.695 204.219 65.2104 201.852 66.3263C199.485 67.4421 196.567 68 193.099 68H173.308ZM183.102 59.9932H191.086C193.815 59.9932 195.806 59.473 197.057 58.4326C198.309 57.3771 198.934 55.9748 198.934 54.2256C198.934 52.9439 198.625 51.813 198.007 50.8329C197.389 49.8528 196.507 49.0838 195.361 48.5259C194.23 47.968 192.88 47.689 191.312 47.689H183.102V59.9932ZM183.102 41.062H190.362C191.704 41.062 192.895 40.8282 193.936 40.3608C194.991 39.8783 195.821 39.1997 196.424 38.3252C197.042 37.4506 197.351 36.4026 197.351 35.1813C197.351 33.5075 196.756 32.158 195.564 31.1326C194.388 30.1073 192.714 29.5946 190.543 29.5946H183.102V41.062ZM229.659 68.6785C226.146 68.6785 223.108 67.9321 220.544 66.4394C217.996 64.9315 216.028 62.8356 214.641 60.1516C213.254 57.4525 212.56 54.3236 212.56 50.7651C212.56 47.1764 213.254 44.04 214.641 41.356C216.028 38.6569 217.996 36.561 220.544 35.0682C223.108 33.5603 226.146 32.8064 229.659 32.8064C233.173 32.8064 236.204 33.5603 238.752 35.0682C241.315 36.561 243.291 38.6569 244.678 41.356C246.065 44.04 246.759 47.1764 246.759 50.7651C246.759 54.3236 246.065 57.4525 244.678 60.1516C243.291 62.8356 241.315 64.9315 238.752 66.4394C236.204 67.9321 233.173 68.6785 229.659 68.6785ZM229.705 61.2146C231.303 61.2146 232.637 60.7622 233.708 59.8575C234.779 58.9377 235.585 57.6862 236.128 56.1029C236.686 54.5197 236.965 52.7178 236.965 50.6972C236.965 48.6767 236.686 46.8748 236.128 45.2915C235.585 43.7083 234.779 42.4567 233.708 41.5369C232.637 40.6171 231.303 40.1572 229.705 40.1572C228.091 40.1572 226.734 40.6171 225.633 41.5369C224.548 42.4567 223.726 43.7083 223.168 45.2915C222.625 46.8748 222.354 48.6767 222.354 50.6972C222.354 52.7178 222.625 54.5197 223.168 56.1029C223.726 57.6862 224.548 58.9377 225.633 59.8575C226.734 60.7622 228.091 61.2146 229.705 61.2146ZM267.447 68.6785C263.934 68.6785 260.895 67.9321 258.332 66.4394C255.783 64.9315 253.816 62.8356 252.428 60.1516C251.041 57.4525 250.348 54.3236 250.348 50.7651C250.348 47.1764 251.041 44.04 252.428 41.356C253.816 38.6569 255.783 36.561 258.332 35.0682C260.895 33.5603 263.934 32.8064 267.447 32.8064C270.96 32.8064 273.991 33.5603 276.539 35.0682C279.103 36.561 281.078 38.6569 282.465 41.356C283.852 44.04 284.546 47.1764 284.546 50.7651C284.546 54.3236 283.852 57.4525 282.465 60.1516C281.078 62.8356 279.103 64.9315 276.539 66.4394C273.991 67.9321 270.96 68.6785 267.447 68.6785ZM267.492 61.2146C269.09 61.2146 270.425 60.7622 271.495 59.8575C272.566 58.9377 273.373 57.6862 273.916 56.1029C274.474 54.5197 274.752 52.7178 274.752 50.6972C274.752 48.6767 274.474 46.8748 273.916 45.2915C273.373 43.7083 272.566 42.4567 271.495 41.5369C270.425 40.6171 269.09 40.1572 267.492 40.1572C265.879 40.1572 264.522 40.6171 263.421 41.5369C262.335 42.4567 261.513 43.7083 260.955 45.2915C260.413 46.8748 260.141 48.6767 260.141 50.6972C260.141 52.7178 260.413 54.5197 260.955 56.1029C261.513 57.6862 262.335 58.9377 263.421 59.8575C264.522 60.7622 265.879 61.2146 267.492 61.2146ZM298.268 58.0028L298.291 46.445H299.693L310.821 33.2587H321.881L306.931 50.7198H304.646L298.268 58.0028ZM289.537 68V21.6783H299.173V68H289.537ZM311.251 68L301.027 52.8686L307.451 46.0605L322.537 68H311.251Z" fill="white"/>
<path d="M23.1488 101.295V126H17.9858V105.541H7.99773V126H2.83479V101.295H23.1488ZM28.1217 126V101.295H37.8686C39.7424 101.295 41.3387 101.653 42.6576 102.369C43.9764 103.076 44.9817 104.062 45.6733 105.324C46.3729 106.579 46.7228 108.026 46.7228 109.667C46.7228 111.307 46.3689 112.755 45.6612 114.009C44.9535 115.264 43.9282 116.241 42.5852 116.941C41.2502 117.64 39.6338 117.99 37.7359 117.99H31.5235V113.804H36.8915C37.8967 113.804 38.725 113.631 39.3764 113.286C40.0359 112.932 40.5264 112.445 40.8481 111.826C41.1778 111.199 41.3427 110.479 41.3427 109.667C41.3427 108.847 41.1778 108.131 40.8481 107.52C40.5264 106.9 40.0359 106.422 39.3764 106.084C38.717 105.738 37.8806 105.565 36.8674 105.565H33.345V126H28.1217ZM72.8179 113.648C72.8179 116.342 72.3073 118.634 71.2859 120.523C70.2726 122.413 68.8894 123.857 67.1363 124.854C65.3912 125.843 63.4289 126.338 61.2496 126.338C59.0541 126.338 57.0838 125.839 55.3387 124.842C53.5936 123.845 52.2144 122.401 51.2011 120.511C50.1878 118.622 49.6812 116.334 49.6812 113.648C49.6812 110.953 50.1878 108.662 51.2011 106.772C52.2144 104.882 53.5936 103.442 55.3387 102.453C57.0838 101.456 59.0541 100.957 61.2496 100.957C63.4289 100.957 65.3912 101.456 67.1363 102.453C68.8894 103.442 70.2726 104.882 71.2859 106.772C72.3073 108.662 72.8179 110.953 72.8179 113.648ZM67.5223 113.648C67.5223 111.902 67.2609 110.431 66.7382 109.233C66.2235 108.034 65.4957 107.126 64.5548 106.506C63.6139 105.887 62.5122 105.577 61.2496 105.577C59.987 105.577 58.8852 105.887 57.9443 106.506C57.0034 107.126 56.2716 108.034 55.7489 109.233C55.2342 110.431 54.9768 111.902 54.9768 113.648C54.9768 115.393 55.2342 116.864 55.7489 118.063C56.2716 119.261 57.0034 120.17 57.9443 120.789C58.8852 121.408 59.987 121.718 61.2496 121.718C62.5122 121.718 63.6139 121.408 64.5548 120.789C65.4957 120.17 66.2235 119.261 66.7382 118.063C67.2609 116.864 67.5223 115.393 67.5223 113.648ZM76.6871 126V101.295H93.334V105.602H81.9104V111.488H92.4775V115.795H81.9104V121.694H93.3822V126H76.6871ZM112.433 126L104.495 115.469H102.71V126H97.4866V101.295H102.71V111.163H103.759L111.962 101.295H118.464L108.826 112.755L118.91 126H112.433ZM120.596 105.602V101.295H140.886V105.602H133.323V126H128.16V105.602H120.596ZM144.227 126V101.295H149.451V111.488H160.054V101.295H165.265V126H160.054V115.795H149.451V126H144.227ZM173.83 126H168.233L176.761 101.295H183.492L192.009 126H186.412L180.223 106.941H180.03L173.83 126ZM173.48 116.289H186.701V120.367H173.48V116.289ZM213.945 126H208.734V105.565H205.212C204.206 105.565 203.37 105.714 202.703 106.012C202.043 106.301 201.549 106.727 201.219 107.29C200.889 107.853 200.724 108.545 200.724 109.365C200.724 110.177 200.889 110.857 201.219 111.404C201.549 111.951 202.043 112.361 202.703 112.634C203.362 112.908 204.19 113.044 205.188 113.044H210.857V117.242H204.343C202.453 117.242 200.837 116.929 199.494 116.301C198.151 115.674 197.125 114.773 196.418 113.599C195.71 112.417 195.356 111.006 195.356 109.365C195.356 107.733 195.702 106.313 196.394 105.107C197.093 103.893 198.103 102.956 199.421 102.296C200.748 101.629 202.345 101.295 204.21 101.295H213.945V126ZM200.616 114.757H206.249L200.242 126H194.476L200.616 114.757ZM247.1 101.295V126H241.937V105.541H231.949V126H226.786V101.295H247.1ZM252.073 126V101.295H261.82C263.694 101.295 265.29 101.653 266.609 102.369C267.928 103.076 268.933 104.062 269.625 105.324C270.324 106.579 270.674 108.026 270.674 109.667C270.674 111.307 270.32 112.755 269.613 114.009C268.905 115.264 267.88 116.241 266.537 116.941C265.202 117.64 263.585 117.99 261.687 117.99H255.475V113.804H260.843C261.848 113.804 262.676 113.631 263.328 113.286C263.987 112.932 264.478 112.445 264.8 111.826C265.129 111.199 265.294 110.479 265.294 109.667C265.294 108.847 265.129 108.131 264.8 107.52C264.478 106.9 263.987 106.422 263.328 106.084C262.668 105.738 261.832 105.565 260.819 105.565H257.296V126H252.073ZM275.472 126H269.875L278.404 101.295H285.135L293.651 126H288.054L281.866 106.941H281.673L275.472 126ZM275.122 116.289H288.343V120.367H275.122V116.289ZM311.571 126L303.633 115.469H301.848V126H296.625V101.295H301.848V111.163H302.897L311.1 101.295H317.602L307.964 112.755L318.048 126H311.571ZM319.734 105.602V101.295H340.024V105.602H332.461V126H327.298V105.602H319.734ZM343.365 101.295H348.577V116.832H348.782L359.457 101.295H364.029V126H358.806V110.451H358.625L347.889 126H343.365V101.295ZM383.291 126L375.353 115.469H373.568V126H368.345V101.295H373.568V111.163H374.618L382.82 101.295H389.322L379.684 112.755L389.769 126H383.291ZM396.653 126H391.056L399.585 101.295H406.316L414.832 126H409.235L403.047 106.941H402.854L396.653 126ZM396.304 116.289H409.525V120.367H396.304V116.289Z" fill="white"/>
</svg>
